<svg xmlns="http://www.w3.org/2000/svg" width="857" height="857" viewBox="0 0 857 857">
  <g id="Group_33" data-name="Group 33" transform="translate(-5288 -2253)">
    <circle id="Ellipse_11" data-name="Ellipse 11" cx="428.5" cy="428.5" r="428.5" transform="translate(5288 2253)"/>
    <path id="Path_22" data-name="Path 22" d="M54.672-124.032v-21.216H22.3V0h34V-70.448c0-29.648,16.32-44.88,42.16-44.88a43.163,43.163,0,0,1,7.888.816V-146.88C82.144-146.88,64.464-139.264,54.672-124.032ZM215.7-146.88c-19.856,0-36.72,6.8-48.144,20.672v-19.04H135.184V52.768h34V-17.68C180.88-4.352,197.2,1.9,215.7,1.9c42.432,0,73.712-29.376,73.712-74.528C289.408-117.5,258.128-146.88,215.7-146.88ZM211.888-27.2c-24.48,0-43.248-17.68-43.248-45.424s18.768-45.424,43.248-45.424,42.976,17.68,42.976,45.424S236.368-27.2,211.888-27.2Zm187.68-4.9c-5.168,4.08-11.968,5.984-19.04,5.984-13.056,0-20.128-7.616-20.128-21.76V-116.96h38.9v-27.2H360.4v-33.184h-34v33.184H302.464v27.2H326.4v69.9c0,32.1,18.224,48.96,50.048,48.96,12.24,0,24.48-3.264,32.64-9.792ZM450.7,1.9a22.122,22.122,0,0,0,22.3-22.576c0-13.6-10.064-22.576-22.3-22.576s-22.3,8.976-22.3,22.576A22.122,22.122,0,0,0,450.7,1.9Z" transform="translate(5468.696 2743.344)" fill="#fff"/>
  </g>
</svg>
