<svg id="Layer_1" enable-background="new 0 0 24 24" height="512" viewBox="0 0 24 24" width="512" xmlns="http://www.w3.org/2000/svg" xmlns:xlink="http://www.w3.org/1999/xlink"><linearGradient id="SVGID_1_" gradientUnits="userSpaceOnUse" x1="1.996" x2="22.004" y1="12" y2="12"><stop offset="0" stop-color="#02beff"/><stop offset="1" stop-color="#535bff"/></linearGradient><switch><g><path d="m21.9 11.5-4.5-7.8c-.2-.3-.5-.5-.9-.5h-9c-.4 0-.7.2-.9.5l-4.5 7.8c-.2.3-.2.7 0 1l4.5 7.8c.2.3.5.5.9.5h9c.4 0 .7-.2.9-.5l4.5-7.8c.1-.3.1-.7 0-1zm-6 7.3h-7.8l-4-6.8 3.9-6.8h7.8l3.9 6.8z" fill="url(#SVGID_1_)"/></g></switch></svg>