<?xml version="1.0" encoding="iso-8859-1"?>
<!-- Generator: Adobe Illustrator 16.0.0, SVG Export Plug-In . SVG Version: 6.00 Build 0)  -->
<!DOCTYPE svg PUBLIC "-//W3C//DTD SVG 1.1//EN" "http://www.w3.org/Graphics/SVG/1.1/DTD/svg11.dtd">
<svg version="1.1" id="Capa_1" xmlns="http://www.w3.org/2000/svg" xmlns:xlink="http://www.w3.org/1999/xlink" x="0px" y="0px"
	 width="588.6px" height="588.6px" viewBox="0 0 588.6 588.6" style="enable-background:new 0 0 588.6 588.6;" xml:space="preserve"
	>
<g>
	<path d="M159.215,249.987h-0.33c-1.571,6.571-3.153,14.932-4.883,21.313l-6.273,23.337l23.56,0.101l-6.695-23.512
		C162.698,264.679,160.787,256.516,159.215,249.987z"/>
	<path d="M262.965,247.891c-5.885,0.103-9.692,0.675-11.939,1.231v75.305c2.247,0.543,5.875,0.606,9.163,0.664
		c24.176,0.597,40.218-12.382,40.218-40.489C300.586,260.17,285.957,247.499,262.965,247.891z"/>
	<path d="M359.036,537.775c0.771,0.053,1.551,0.116,2.342,0.116h178.2c20.84,0,37.8-16.96,37.8-37.801V86.994
		c0-20.838-16.96-37.8-37.8-37.8h-178.2c-0.786,0-1.571,0.071-2.342,0.119V0L11.222,46.417v494.564L359.036,588.6V537.775z
		 M359.036,71.036c0.771-0.113,1.54-0.237,2.342-0.237h178.2c8.933,0,16.199,7.27,16.199,16.2v413.103
		c0,8.928-7.267,16.2-16.199,16.2h-178.2c-0.797,0-1.571-0.121-2.342-0.242V71.036z M81.2,321.342
		c6.784,0.127,14.333-1.34,18.815-3.175l3.438,19.037c-4.185,2.12-13.563,4.261-25.629,3.939
		c-33.539-0.896-50.383-23.636-50.383-53.146c0-35.343,23.087-55.638,52.576-56.416c11.665-0.311,20.596,2.009,24.641,4.148
		l-4.638,19.377c-4.63-1.993-11.011-3.792-18.956-3.662c-17.613,0.298-31.092,11.867-31.092,35.176
		C49.974,307.61,61.414,321.015,81.2,321.342z M183.181,342.299l-8.367-28.751l-30.52-0.375l-7.457,27.923l-24.176-0.617
		l31.628-108.788l31.638-0.799l34.09,112.113L183.181,342.299z M309.424,331.551c-12.791,10.025-31.954,14.407-54.946,13.801
		c-13.545-0.358-23.037-1.461-29.426-2.468V231.145c9.439-1.758,21.863-2.932,35.142-3.271c22.399-0.572,37.159,3.04,48.866,11.356
		c12.735,8.894,20.814,23.438,20.814,44.476C329.874,306.502,321.236,322.102,309.424,331.551z"/>
	<path d="M397.69,353.163l13.278-12.451l37.252-95.352l37.268,95.352l13.268,12.451l18.479,32.379l-8.211-36.593l1.402-16.901
		l-22.074-60.027h12.256v9.682h5.979v-25.354h-5.979v9.69h-14.46l-14.302-38.886c1.529-3.446,2.404-7.23,2.404-11.243
		c0-14.109-10.525-25.645-24.12-27.49v-33.064h-7.488v33.064c-13.616,1.846-24.132,13.381-24.132,27.49
		c0,5.658,1.693,10.908,4.609,15.304l-12.825,34.826h-15.029v-9.69h-5.979v25.354h5.979v-9.682h12.836l-22.075,60.027l1.403,16.901
		l-8.216,36.593L397.69,353.163z M446.818,196.694c10.642,0,19.269,8.63,19.269,19.27c0,10.636-8.627,19.261-19.269,19.261
		c-10.652,0-19.28-8.63-19.28-19.261C427.538,205.324,436.166,196.694,446.818,196.694z"/>
	<path d="M446.818,206.735c5.247,0,9.502,4.25,9.502,9.497s-4.255,9.498-9.502,9.498c-5.242,0-9.498-4.25-9.498-9.498
		S441.576,206.735,446.818,206.735z"/>
</g>
<g>
</g>
<g>
</g>
<g>
</g>
<g>
</g>
<g>
</g>
<g>
</g>
<g>
</g>
<g>
</g>
<g>
</g>
<g>
</g>
<g>
</g>
<g>
</g>
<g>
</g>
<g>
</g>
<g>
</g>
</svg>
